<mxfile host="app.diagrams.net" agent="Mozilla/5.0 (Windows NT 10.0; Win64; x64) AppleWebKit/537.36 (KHTML, like Gecko) Chrome/138.0.0.0 YaBrowser/25.8.0.0 Safari/537.36" version="28.1.2">
  <diagram name="Страница — 1" id="Q8e0lImij2IFn5oJXy3L">
    <mxGraphModel dx="1427" dy="884" grid="1" gridSize="10" guides="1" tooltips="1" connect="1" arrows="1" fold="1" page="1" pageScale="1" pageWidth="1169" pageHeight="827" math="0" shadow="0">
      <root>
        <mxCell id="0" />
        <mxCell id="1" parent="0" />
        <mxCell id="kU4winNeFEyJPJjdF_Ra-1" value="" style="shape=table;startSize=0;container=1;collapsible=0;childLayout=tableLayout;fontSize=16;html=1;whiteSpace=wrap;labelBackgroundColor=default;" vertex="1" parent="1">
          <mxGeometry x="70" y="80" width="1400" height="632" as="geometry" />
        </mxCell>
        <mxCell id="kU4winNeFEyJPJjdF_Ra-2" value="" style="shape=tableRow;horizontal=0;startSize=0;swimlaneHead=0;swimlaneBody=0;strokeColor=inherit;top=0;left=0;bottom=0;right=0;collapsible=0;dropTarget=0;fillColor=none;points=[[0,0.5],[1,0.5]];portConstraint=eastwest;fontSize=16;" vertex="1" parent="kU4winNeFEyJPJjdF_Ra-1">
          <mxGeometry width="1400" height="48" as="geometry" />
        </mxCell>
        <mxCell id="kU4winNeFEyJPJjdF_Ra-3" style="shape=partialRectangle;html=1;whiteSpace=wrap;connectable=0;strokeColor=inherit;overflow=hidden;fillColor=none;top=0;left=0;bottom=0;right=0;pointerEvents=1;fontSize=16;" vertex="1" parent="kU4winNeFEyJPJjdF_Ra-2">
          <mxGeometry width="130" height="48" as="geometry">
            <mxRectangle width="130" height="48" as="alternateBounds" />
          </mxGeometry>
        </mxCell>
        <mxCell id="kU4winNeFEyJPJjdF_Ra-4" value="Взаимодействие&lt;br&gt;с&lt;br&gt;клиентами" style="shape=partialRectangle;html=1;whiteSpace=wrap;connectable=0;strokeColor=inherit;overflow=hidden;fillColor=none;top=0;left=0;bottom=0;right=0;pointerEvents=1;fontSize=12;fontStyle=1" vertex="1" parent="kU4winNeFEyJPJjdF_Ra-2">
          <mxGeometry x="130" width="140" height="48" as="geometry">
            <mxRectangle width="140" height="48" as="alternateBounds" />
          </mxGeometry>
        </mxCell>
        <mxCell id="kU4winNeFEyJPJjdF_Ra-5" value="Проведение платежей,&lt;div&gt;открытие счетов&lt;br&gt;&lt;br&gt;&lt;/div&gt;" style="shape=partialRectangle;html=1;whiteSpace=wrap;connectable=0;strokeColor=inherit;overflow=hidden;fillColor=none;top=0;left=0;bottom=0;right=0;pointerEvents=1;fontSize=12;fontStyle=1" vertex="1" parent="kU4winNeFEyJPJjdF_Ra-2">
          <mxGeometry x="270" width="140" height="48" as="geometry">
            <mxRectangle width="140" height="48" as="alternateBounds" />
          </mxGeometry>
        </mxCell>
        <mxCell id="kU4winNeFEyJPJjdF_Ra-6" value="Продажи в сети отделений" style="shape=partialRectangle;html=1;whiteSpace=wrap;connectable=0;strokeColor=inherit;overflow=hidden;fillColor=none;top=0;left=0;bottom=0;right=0;pointerEvents=1;fontSize=12;fontStyle=1" vertex="1" parent="kU4winNeFEyJPJjdF_Ra-2">
          <mxGeometry x="410" width="140" height="48" as="geometry">
            <mxRectangle width="140" height="48" as="alternateBounds" />
          </mxGeometry>
        </mxCell>
        <mxCell id="kU4winNeFEyJPJjdF_Ra-7" value="Обслуживание депозитных процессов" style="shape=partialRectangle;html=1;whiteSpace=wrap;connectable=0;strokeColor=inherit;overflow=hidden;fillColor=none;top=0;left=0;bottom=0;right=0;pointerEvents=1;fontSize=12;fontStyle=1" vertex="1" parent="kU4winNeFEyJPJjdF_Ra-2">
          <mxGeometry x="550" width="160" height="48" as="geometry">
            <mxRectangle width="160" height="48" as="alternateBounds" />
          </mxGeometry>
        </mxCell>
        <mxCell id="kU4winNeFEyJPJjdF_Ra-8" value="Обслуживание кредитных процессов" style="shape=partialRectangle;html=1;whiteSpace=wrap;connectable=0;strokeColor=inherit;overflow=hidden;fillColor=none;top=0;left=0;bottom=0;right=0;pointerEvents=1;fontSize=12;fontStyle=1" vertex="1" parent="kU4winNeFEyJPJjdF_Ra-2">
          <mxGeometry x="710" width="150" height="48" as="geometry">
            <mxRectangle width="150" height="48" as="alternateBounds" />
          </mxGeometry>
        </mxCell>
        <mxCell id="kU4winNeFEyJPJjdF_Ra-9" value="Управление договорами" style="shape=partialRectangle;html=1;whiteSpace=wrap;connectable=0;strokeColor=inherit;overflow=hidden;fillColor=none;top=0;left=0;bottom=0;right=0;pointerEvents=1;fontSize=12;fontStyle=1" vertex="1" parent="kU4winNeFEyJPJjdF_Ra-2">
          <mxGeometry x="860" width="180" height="48" as="geometry">
            <mxRectangle width="180" height="48" as="alternateBounds" />
          </mxGeometry>
        </mxCell>
        <mxCell id="kU4winNeFEyJPJjdF_Ra-10" value="Продажи через кол-центр" style="shape=partialRectangle;html=1;whiteSpace=wrap;connectable=0;strokeColor=inherit;overflow=hidden;fillColor=none;top=0;left=0;bottom=0;right=0;pointerEvents=1;fontSize=12;fontStyle=1" vertex="1" parent="kU4winNeFEyJPJjdF_Ra-2">
          <mxGeometry x="1040" width="180" height="48" as="geometry">
            <mxRectangle width="180" height="48" as="alternateBounds" />
          </mxGeometry>
        </mxCell>
        <mxCell id="kU4winNeFEyJPJjdF_Ra-11" value="Digital-оповещения клиентов" style="shape=partialRectangle;html=1;whiteSpace=wrap;connectable=0;strokeColor=inherit;overflow=hidden;fillColor=none;top=0;left=0;bottom=0;right=0;pointerEvents=1;fontSize=12;fontStyle=1" vertex="1" parent="kU4winNeFEyJPJjdF_Ra-2">
          <mxGeometry x="1220" width="180" height="48" as="geometry">
            <mxRectangle width="180" height="48" as="alternateBounds" />
          </mxGeometry>
        </mxCell>
        <mxCell id="kU4winNeFEyJPJjdF_Ra-12" value="" style="shape=tableRow;horizontal=0;startSize=0;swimlaneHead=0;swimlaneBody=0;strokeColor=inherit;top=0;left=0;bottom=0;right=0;collapsible=0;dropTarget=0;fillColor=none;points=[[0,0.5],[1,0.5]];portConstraint=eastwest;fontSize=16;labelBackgroundColor=light-dark(#98c7ec, #ededed);" vertex="1" parent="kU4winNeFEyJPJjdF_Ra-1">
          <mxGeometry y="48" width="1400" height="55" as="geometry" />
        </mxCell>
        <mxCell id="kU4winNeFEyJPJjdF_Ra-13" value="Управление&amp;nbsp;&lt;br&gt;обслуживанием&lt;br&gt;&amp;nbsp;в сети отделений" style="shape=partialRectangle;connectable=0;strokeColor=inherit;overflow=hidden;fillColor=none;top=0;left=0;bottom=0;right=0;pointerEvents=1;fontSize=12;whiteSpace=wrap;fontStyle=1;html=1;" vertex="1" parent="kU4winNeFEyJPJjdF_Ra-12">
          <mxGeometry width="130" height="55" as="geometry">
            <mxRectangle width="130" height="55" as="alternateBounds" />
          </mxGeometry>
        </mxCell>
        <mxCell id="kU4winNeFEyJPJjdF_Ra-14" style="shape=partialRectangle;html=1;whiteSpace=wrap;connectable=0;overflow=hidden;top=0;left=0;bottom=0;right=0;pointerEvents=1;fontSize=11;fontStyle=0;labelBackgroundColor=default;" vertex="1" parent="kU4winNeFEyJPJjdF_Ra-12">
          <mxGeometry x="130" width="140" height="55" as="geometry">
            <mxRectangle width="140" height="55" as="alternateBounds" />
          </mxGeometry>
        </mxCell>
        <mxCell id="kU4winNeFEyJPJjdF_Ra-15" style="shape=partialRectangle;html=1;whiteSpace=wrap;connectable=0;overflow=hidden;top=0;left=0;bottom=0;right=0;pointerEvents=1;fontSize=11;fontStyle=0;labelBackgroundColor=default;" vertex="1" parent="kU4winNeFEyJPJjdF_Ra-12">
          <mxGeometry x="270" width="140" height="55" as="geometry">
            <mxRectangle width="140" height="55" as="alternateBounds" />
          </mxGeometry>
        </mxCell>
        <mxCell id="kU4winNeFEyJPJjdF_Ra-16" value="&lt;span style=&quot;color: rgb(29, 29, 32); font-family: system-ui, ui-sans-serif, -apple-system, BlinkMacSystemFont, sans-serif, Inter, NotoSansHans; font-variant-ligatures: normal; font-variant-caps: normal; letter-spacing: -0.28px; orphans: 2; text-align: start; text-indent: 0px; text-transform: none; widows: 2; word-spacing: 0px; -webkit-text-stroke-width: 0px; white-space: nowrap; text-decoration-thickness: initial; text-decoration-style: initial; text-decoration-color: initial; float: none; display: inline !important;&quot;&gt;Сотрудники фронт-офиса&lt;/span&gt;&lt;div&gt;&lt;span style=&quot;color: rgb(29, 29, 32); font-family: system-ui, ui-sans-serif, -apple-system, BlinkMacSystemFont, sans-serif, Inter, NotoSansHans; font-variant-ligatures: normal; font-variant-caps: normal; letter-spacing: -0.28px; orphans: 2; text-align: start; text-indent: 0px; text-transform: none; widows: 2; word-spacing: 0px; -webkit-text-stroke-width: 0px; white-space: nowrap; text-decoration-thickness: initial; text-decoration-style: initial; text-decoration-color: initial; float: none; display: inline !important;&quot;&gt;&amp;nbsp;напрямую работают&lt;/span&gt;&lt;/div&gt;&lt;div&gt;&lt;span style=&quot;color: rgb(29, 29, 32); font-family: system-ui, ui-sans-serif, -apple-system, BlinkMacSystemFont, sans-serif, Inter, NotoSansHans; font-variant-ligatures: normal; font-variant-caps: normal; letter-spacing: -0.28px; orphans: 2; text-align: start; text-indent: 0px; text-transform: none; widows: 2; word-spacing: 0px; -webkit-text-stroke-width: 0px; white-space: nowrap; text-decoration-thickness: initial; text-decoration-style: initial; text-decoration-color: initial; float: none; display: inline !important;&quot;&gt;с АБС для открытия&amp;nbsp;&lt;/span&gt;&lt;/div&gt;&lt;div&gt;&lt;span style=&quot;color: rgb(29, 29, 32); font-family: system-ui, ui-sans-serif, -apple-system, BlinkMacSystemFont, sans-serif, Inter, NotoSansHans; font-variant-ligatures: normal; font-variant-caps: normal; letter-spacing: -0.28px; orphans: 2; text-align: start; text-indent: 0px; text-transform: none; widows: 2; word-spacing: 0px; -webkit-text-stroke-width: 0px; white-space: nowrap; text-decoration-thickness: initial; text-decoration-style: initial; text-decoration-color: initial; float: none; display: inline !important;&quot;&gt;депозитов и счетов&lt;/span&gt;&lt;br&gt;&lt;/div&gt;" style="shape=partialRectangle;html=1;whiteSpace=wrap;connectable=0;overflow=hidden;top=0;left=0;bottom=0;right=0;pointerEvents=1;fontSize=11;fontStyle=0;labelBackgroundColor=default;" vertex="1" parent="kU4winNeFEyJPJjdF_Ra-12">
          <mxGeometry x="410" width="140" height="55" as="geometry">
            <mxRectangle width="140" height="55" as="alternateBounds" />
          </mxGeometry>
        </mxCell>
        <mxCell id="kU4winNeFEyJPJjdF_Ra-17" value="&lt;span style=&quot;color: rgb(29, 29, 32); font-family: system-ui, ui-sans-serif, -apple-system, BlinkMacSystemFont, sans-serif, Inter, NotoSansHans; letter-spacing: -0.28px; text-align: start; text-wrap-mode: nowrap; background-color: rgb(255, 255, 255);&quot;&gt;Взаимодействует с&lt;/span&gt;&lt;div&gt;&lt;span style=&quot;color: rgb(29, 29, 32); font-family: system-ui, ui-sans-serif, -apple-system, BlinkMacSystemFont, sans-serif, Inter, NotoSansHans; letter-spacing: -0.28px; text-align: start; text-wrap-mode: nowrap; background-color: rgb(255, 255, 255);&quot;&gt;&amp;nbsp;бэк-офисом для&amp;nbsp;&lt;/span&gt;&lt;/div&gt;&lt;div&gt;&lt;span style=&quot;color: rgb(29, 29, 32); font-family: system-ui, ui-sans-serif, -apple-system, BlinkMacSystemFont, sans-serif, Inter, NotoSansHans; letter-spacing: -0.28px; text-align: start; text-wrap-mode: nowrap; background-color: rgb(255, 255, 255);&quot;&gt;согласования ставок&lt;/span&gt;&lt;/div&gt;&lt;div&gt;&lt;span style=&quot;color: rgb(29, 29, 32); font-family: system-ui, ui-sans-serif, -apple-system, BlinkMacSystemFont, sans-serif, Inter, NotoSansHans; letter-spacing: -0.28px; text-align: start; text-wrap-mode: nowrap; background-color: rgb(255, 255, 255);&quot;&gt;&amp;nbsp;(через письма)&lt;/span&gt;&lt;/div&gt;" style="shape=partialRectangle;html=1;whiteSpace=wrap;connectable=0;overflow=hidden;top=0;left=0;bottom=0;right=0;pointerEvents=1;fontSize=11;fontStyle=0" vertex="1" parent="kU4winNeFEyJPJjdF_Ra-12">
          <mxGeometry x="550" width="160" height="55" as="geometry">
            <mxRectangle width="160" height="55" as="alternateBounds" />
          </mxGeometry>
        </mxCell>
        <mxCell id="kU4winNeFEyJPJjdF_Ra-18" value="" style="shape=partialRectangle;html=1;whiteSpace=wrap;connectable=0;strokeColor=inherit;overflow=hidden;fillColor=none;top=0;left=0;bottom=0;right=0;pointerEvents=1;fontSize=16;" vertex="1" parent="kU4winNeFEyJPJjdF_Ra-12">
          <mxGeometry x="710" width="150" height="55" as="geometry">
            <mxRectangle width="150" height="55" as="alternateBounds" />
          </mxGeometry>
        </mxCell>
        <mxCell id="kU4winNeFEyJPJjdF_Ra-19" value="&lt;span style=&quot;color: rgb(29, 29, 32); font-family: system-ui, ui-sans-serif, -apple-system, BlinkMacSystemFont, sans-serif, Inter, NotoSansHans; font-variant-ligatures: normal; font-variant-caps: normal; font-weight: 400; letter-spacing: -0.28px; orphans: 2; text-align: start; text-indent: 0px; text-transform: none; widows: 2; word-spacing: 0px; -webkit-text-stroke-width: 0px; white-space: nowrap; background-color: rgb(255, 255, 255); text-decoration-thickness: initial; text-decoration-style: initial; text-decoration-color: initial; float: none; display: inline !important;&quot;&gt;Создает договоры&lt;/span&gt;&lt;div&gt;&lt;span style=&quot;color: rgb(29, 29, 32); font-family: system-ui, ui-sans-serif, -apple-system, BlinkMacSystemFont, sans-serif, Inter, NotoSansHans; font-variant-ligatures: normal; font-variant-caps: normal; font-weight: 400; letter-spacing: -0.28px; orphans: 2; text-align: start; text-indent: 0px; text-transform: none; widows: 2; word-spacing: 0px; -webkit-text-stroke-width: 0px; white-space: nowrap; background-color: rgb(255, 255, 255); text-decoration-thickness: initial; text-decoration-style: initial; text-decoration-color: initial; float: none; display: inline !important;&quot;&gt;&amp;nbsp;в АБС после&amp;nbsp;&lt;/span&gt;&lt;/div&gt;&lt;div&gt;&lt;span style=&quot;color: rgb(29, 29, 32); font-family: system-ui, ui-sans-serif, -apple-system, BlinkMacSystemFont, sans-serif, Inter, NotoSansHans; font-variant-ligatures: normal; font-variant-caps: normal; font-weight: 400; letter-spacing: -0.28px; orphans: 2; text-align: start; text-indent: 0px; text-transform: none; widows: 2; word-spacing: 0px; -webkit-text-stroke-width: 0px; white-space: nowrap; background-color: rgb(255, 255, 255); text-decoration-thickness: initial; text-decoration-style: initial; text-decoration-color: initial; float: none; display: inline !important;&quot;&gt;подписания&amp;nbsp;&lt;/span&gt;&lt;/div&gt;&lt;div&gt;&lt;span style=&quot;color: rgb(29, 29, 32); font-family: system-ui, ui-sans-serif, -apple-system, BlinkMacSystemFont, sans-serif, Inter, NotoSansHans; font-variant-ligatures: normal; font-variant-caps: normal; font-weight: 400; letter-spacing: -0.28px; orphans: 2; text-align: start; text-indent: 0px; text-transform: none; widows: 2; word-spacing: 0px; -webkit-text-stroke-width: 0px; white-space: nowrap; background-color: rgb(255, 255, 255); text-decoration-thickness: initial; text-decoration-style: initial; text-decoration-color: initial; float: none; display: inline !important;&quot;&gt;клиентом&lt;/span&gt;&lt;br&gt;&lt;/div&gt;" style="shape=partialRectangle;html=1;whiteSpace=wrap;connectable=0;strokeColor=inherit;overflow=hidden;fillColor=none;top=0;left=0;bottom=0;right=0;pointerEvents=1;fontSize=11;fontStyle=0" vertex="1" parent="kU4winNeFEyJPJjdF_Ra-12">
          <mxGeometry x="860" width="180" height="55" as="geometry">
            <mxRectangle width="180" height="55" as="alternateBounds" />
          </mxGeometry>
        </mxCell>
        <mxCell id="kU4winNeFEyJPJjdF_Ra-20" style="shape=partialRectangle;html=1;whiteSpace=wrap;connectable=0;strokeColor=inherit;overflow=hidden;fillColor=none;top=0;left=0;bottom=0;right=0;pointerEvents=1;fontSize=11;fontStyle=0" vertex="1" parent="kU4winNeFEyJPJjdF_Ra-12">
          <mxGeometry x="1040" width="180" height="55" as="geometry">
            <mxRectangle width="180" height="55" as="alternateBounds" />
          </mxGeometry>
        </mxCell>
        <mxCell id="kU4winNeFEyJPJjdF_Ra-21" style="shape=partialRectangle;html=1;whiteSpace=wrap;connectable=0;strokeColor=inherit;overflow=hidden;fillColor=none;top=0;left=0;bottom=0;right=0;pointerEvents=1;fontSize=11;fontStyle=0" vertex="1" parent="kU4winNeFEyJPJjdF_Ra-12">
          <mxGeometry x="1220" width="180" height="55" as="geometry">
            <mxRectangle width="180" height="55" as="alternateBounds" />
          </mxGeometry>
        </mxCell>
        <mxCell id="kU4winNeFEyJPJjdF_Ra-22" value="" style="shape=tableRow;horizontal=0;startSize=0;swimlaneHead=0;swimlaneBody=0;strokeColor=inherit;top=0;left=0;bottom=0;right=0;collapsible=0;dropTarget=0;fillColor=none;points=[[0,0.5],[1,0.5]];portConstraint=eastwest;fontSize=16;" vertex="1" parent="kU4winNeFEyJPJjdF_Ra-1">
          <mxGeometry y="103" width="1400" height="51" as="geometry" />
        </mxCell>
        <mxCell id="kU4winNeFEyJPJjdF_Ra-23" value="&lt;span style=&quot;--tw-border-spacing-x: 0; --tw-border-spacing-y: 0; --tw-translate-x: 0; --tw-translate-y: 0; --tw-rotate: 0; --tw-skew-x: 0; --tw-skew-y: 0; --tw-scale-x: 1; --tw-scale-y: 1; --tw-pan-x: ; --tw-pan-y: ; --tw-pinch-zoom: ; --tw-scroll-snap-strictness: proximity; --tw-gradient-from-position: ; --tw-gradient-via-position: ; --tw-gradient-to-position: ; --tw-ordinal: ; --tw-slashed-zero: ; --tw-numeric-figure: ; --tw-numeric-spacing: ; --tw-numeric-fraction: ; --tw-ring-inset: ; --tw-ring-offset-width: 0px; --tw-ring-offset-color: #fff; --tw-ring-color: rgb(59 130 246 / .5); --tw-ring-offset-shadow: 0 0 #0000; --tw-ring-shadow: 0 0 #0000; --tw-shadow: 0 0 #0000; --tw-shadow-colored: 0 0 #0000; --tw-blur: ; --tw-brightness: ; --tw-contrast: ; --tw-grayscale: ; --tw-hue-rotate: ; --tw-invert: ; --tw-saturate: ; --tw-sepia: ; --tw-drop-shadow: ; --tw-backdrop-blur: ; --tw-backdrop-brightness: ; --tw-backdrop-contrast: ; --tw-backdrop-grayscale: ; --tw-backdrop-hue-rotate: ; --tw-backdrop-invert: ; --tw-backdrop-opacity: ; --tw-backdrop-saturate: ; --tw-backdrop-sepia: ; --tw-contain-size: ; --tw-contain-layout: ; --tw-contain-paint: ; --tw-contain-style: ; box-sizing: border-box; border-top: 0px solid rgb(227, 227, 227); border-bottom: 0px solid rgb(227, 227, 227); color: rgb(17, 24, 39); margin: 12px 0px; line-height: 1.75; letter-spacing: 0.02em; font-family: system-ui, ui-sans-serif, -apple-system, BlinkMacSystemFont, sans-serif, Inter, NotoSansHans; text-align: start; text-wrap-mode: nowrap; background-color: rgb(255, 255, 255); border-right: none !important; border-left: none !important;&quot;&gt;Управление IT&lt;/span&gt;" style="shape=partialRectangle;html=1;whiteSpace=wrap;connectable=0;strokeColor=inherit;overflow=hidden;fillColor=none;top=0;left=0;bottom=0;right=0;pointerEvents=1;fontSize=12;fontStyle=1" vertex="1" parent="kU4winNeFEyJPJjdF_Ra-22">
          <mxGeometry width="130" height="51" as="geometry">
            <mxRectangle width="130" height="51" as="alternateBounds" />
          </mxGeometry>
        </mxCell>
        <mxCell id="kU4winNeFEyJPJjdF_Ra-24" style="shape=partialRectangle;html=1;whiteSpace=wrap;connectable=0;strokeColor=inherit;overflow=hidden;fillColor=none;top=0;left=0;bottom=0;right=0;pointerEvents=1;fontSize=16;" vertex="1" parent="kU4winNeFEyJPJjdF_Ra-22">
          <mxGeometry x="130" width="140" height="51" as="geometry">
            <mxRectangle width="140" height="51" as="alternateBounds" />
          </mxGeometry>
        </mxCell>
        <mxCell id="kU4winNeFEyJPJjdF_Ra-25" style="shape=partialRectangle;html=1;whiteSpace=wrap;connectable=0;strokeColor=inherit;overflow=hidden;fillColor=none;top=0;left=0;bottom=0;right=0;pointerEvents=1;fontSize=16;" vertex="1" parent="kU4winNeFEyJPJjdF_Ra-22">
          <mxGeometry x="270" width="140" height="51" as="geometry">
            <mxRectangle width="140" height="51" as="alternateBounds" />
          </mxGeometry>
        </mxCell>
        <mxCell id="kU4winNeFEyJPJjdF_Ra-26" style="shape=partialRectangle;html=1;whiteSpace=wrap;connectable=0;strokeColor=inherit;overflow=hidden;fillColor=none;top=0;left=0;bottom=0;right=0;pointerEvents=1;fontSize=16;" vertex="1" parent="kU4winNeFEyJPJjdF_Ra-22">
          <mxGeometry x="410" width="140" height="51" as="geometry">
            <mxRectangle width="140" height="51" as="alternateBounds" />
          </mxGeometry>
        </mxCell>
        <mxCell id="kU4winNeFEyJPJjdF_Ra-27" value="&lt;br&gt;&lt;span style=&quot;color: rgb(29, 29, 32); font-family: system-ui, ui-sans-serif, -apple-system, BlinkMacSystemFont, sans-serif, Inter, NotoSansHans; font-variant-ligatures: normal; font-variant-caps: normal; font-weight: 400; letter-spacing: -0.28px; orphans: 2; text-align: start; text-indent: 0px; text-transform: none; widows: 2; word-spacing: 0px; -webkit-text-stroke-width: 0px; white-space: nowrap; background-color: rgb(255, 255, 255); text-decoration-thickness: initial; text-decoration-style: initial; text-decoration-color: initial; float: none; display: inline !important;&quot;&gt;&lt;span&gt;&amp;nbsp;&lt;/span&gt;Поддерживает АБС,&amp;nbsp;&lt;/span&gt;&lt;div&gt;&lt;span style=&quot;color: rgb(29, 29, 32); font-family: system-ui, ui-sans-serif, -apple-system, BlinkMacSystemFont, sans-serif, Inter, NotoSansHans; font-variant-ligatures: normal; font-variant-caps: normal; font-weight: 400; letter-spacing: -0.28px; orphans: 2; text-align: start; text-indent: 0px; text-transform: none; widows: 2; word-spacing: 0px; -webkit-text-stroke-width: 0px; white-space: nowrap; background-color: rgb(255, 255, 255); text-decoration-thickness: initial; text-decoration-style: initial; text-decoration-color: initial; float: none; display: inline !important;&quot;&gt;где происходят&lt;/span&gt;&lt;/div&gt;&lt;div&gt;&lt;span style=&quot;color: rgb(29, 29, 32); font-family: system-ui, ui-sans-serif, -apple-system, BlinkMacSystemFont, sans-serif, Inter, NotoSansHans; font-variant-ligatures: normal; font-variant-caps: normal; font-weight: 400; letter-spacing: -0.28px; orphans: 2; text-align: start; text-indent: 0px; text-transform: none; widows: 2; word-spacing: 0px; -webkit-text-stroke-width: 0px; white-space: nowrap; background-color: rgb(255, 255, 255); text-decoration-thickness: initial; text-decoration-style: initial; text-decoration-color: initial; float: none; display: inline !important;&quot;&gt;&amp;nbsp;все операции&lt;/span&gt;&lt;br&gt;&lt;br&gt;&lt;/div&gt;" style="shape=partialRectangle;html=1;whiteSpace=wrap;connectable=0;strokeColor=inherit;overflow=hidden;fillColor=none;top=0;left=0;bottom=0;right=0;pointerEvents=1;fontSize=11;fontStyle=0" vertex="1" parent="kU4winNeFEyJPJjdF_Ra-22">
          <mxGeometry x="550" width="160" height="51" as="geometry">
            <mxRectangle width="160" height="51" as="alternateBounds" />
          </mxGeometry>
        </mxCell>
        <mxCell id="kU4winNeFEyJPJjdF_Ra-28" value="&lt;div&gt;&lt;span style=&quot;text-wrap-mode: nowrap; color: rgb(29, 29, 32); font-family: system-ui, ui-sans-serif, -apple-system, BlinkMacSystemFont, sans-serif, Inter, NotoSansHans; letter-spacing: -0.28px; text-align: start; background-color: rgb(255, 255, 255); float: none; display: inline !important;&quot;&gt;Поддерживает АБС,&amp;nbsp;&lt;/span&gt;&lt;div&gt;&lt;span style=&quot;color: rgb(29, 29, 32); font-family: system-ui, ui-sans-serif, -apple-system, BlinkMacSystemFont, sans-serif, Inter, NotoSansHans; letter-spacing: -0.28px; text-align: start; text-wrap-mode: nowrap; background-color: rgb(255, 255, 255); float: none; display: inline !important;&quot;&gt;где происходят&lt;/span&gt;&lt;/div&gt;&lt;div&gt;&lt;span style=&quot;color: rgb(29, 29, 32); font-family: system-ui, ui-sans-serif, -apple-system, BlinkMacSystemFont, sans-serif, Inter, NotoSansHans; letter-spacing: -0.28px; text-align: start; text-wrap-mode: nowrap; background-color: rgb(255, 255, 255); float: none; display: inline !important;&quot;&gt;&amp;nbsp;все операции&lt;/span&gt;&lt;/div&gt;&lt;/div&gt;" style="shape=partialRectangle;html=1;whiteSpace=wrap;connectable=0;strokeColor=inherit;overflow=hidden;fillColor=none;top=0;left=0;bottom=0;right=0;pointerEvents=1;fontSize=11;align=center;fontStyle=0" vertex="1" parent="kU4winNeFEyJPJjdF_Ra-22">
          <mxGeometry x="710" width="150" height="51" as="geometry">
            <mxRectangle width="150" height="51" as="alternateBounds" />
          </mxGeometry>
        </mxCell>
        <mxCell id="kU4winNeFEyJPJjdF_Ra-29" value="&lt;span style=&quot;color: rgb(29, 29, 32); font-family: system-ui, ui-sans-serif, -apple-system, BlinkMacSystemFont, sans-serif, Inter, NotoSansHans; letter-spacing: -0.28px; text-align: start; text-wrap-mode: nowrap; background-color: rgb(255, 255, 255);&quot;&gt;Поддерживает АБС&lt;/span&gt;" style="shape=partialRectangle;html=1;whiteSpace=wrap;connectable=0;strokeColor=inherit;overflow=hidden;fillColor=none;top=0;left=0;bottom=0;right=0;pointerEvents=1;fontSize=11;fontStyle=0" vertex="1" parent="kU4winNeFEyJPJjdF_Ra-22">
          <mxGeometry x="860" width="180" height="51" as="geometry">
            <mxRectangle width="180" height="51" as="alternateBounds" />
          </mxGeometry>
        </mxCell>
        <mxCell id="kU4winNeFEyJPJjdF_Ra-30" style="shape=partialRectangle;html=1;whiteSpace=wrap;connectable=0;strokeColor=inherit;overflow=hidden;fillColor=none;top=0;left=0;bottom=0;right=0;pointerEvents=1;fontSize=11;fontStyle=0" vertex="1" parent="kU4winNeFEyJPJjdF_Ra-22">
          <mxGeometry x="1040" width="180" height="51" as="geometry">
            <mxRectangle width="180" height="51" as="alternateBounds" />
          </mxGeometry>
        </mxCell>
        <mxCell id="kU4winNeFEyJPJjdF_Ra-31" style="shape=partialRectangle;html=1;whiteSpace=wrap;connectable=0;strokeColor=inherit;overflow=hidden;fillColor=none;top=0;left=0;bottom=0;right=0;pointerEvents=1;fontSize=11;fontStyle=0" vertex="1" parent="kU4winNeFEyJPJjdF_Ra-22">
          <mxGeometry x="1220" width="180" height="51" as="geometry">
            <mxRectangle width="180" height="51" as="alternateBounds" />
          </mxGeometry>
        </mxCell>
        <mxCell id="kU4winNeFEyJPJjdF_Ra-32" style="shape=tableRow;horizontal=0;startSize=0;swimlaneHead=0;swimlaneBody=0;strokeColor=inherit;top=0;left=0;bottom=0;right=0;collapsible=0;dropTarget=0;fillColor=none;points=[[0,0.5],[1,0.5]];portConstraint=eastwest;fontSize=16;" vertex="1" parent="kU4winNeFEyJPJjdF_Ra-1">
          <mxGeometry y="154" width="1400" height="66" as="geometry" />
        </mxCell>
        <mxCell id="kU4winNeFEyJPJjdF_Ra-33" value="Управление обслуживанием депозитных продуктов" style="shape=partialRectangle;html=1;whiteSpace=wrap;connectable=0;strokeColor=inherit;overflow=hidden;fillColor=none;top=0;left=0;bottom=0;right=0;pointerEvents=1;fontSize=12;fontStyle=1" vertex="1" parent="kU4winNeFEyJPJjdF_Ra-32">
          <mxGeometry width="130" height="66" as="geometry">
            <mxRectangle width="130" height="66" as="alternateBounds" />
          </mxGeometry>
        </mxCell>
        <mxCell id="kU4winNeFEyJPJjdF_Ra-34" style="shape=partialRectangle;html=1;whiteSpace=wrap;connectable=0;strokeColor=inherit;overflow=hidden;fillColor=none;top=0;left=0;bottom=0;right=0;pointerEvents=1;fontSize=16;" vertex="1" parent="kU4winNeFEyJPJjdF_Ra-32">
          <mxGeometry x="130" width="140" height="66" as="geometry">
            <mxRectangle width="140" height="66" as="alternateBounds" />
          </mxGeometry>
        </mxCell>
        <mxCell id="kU4winNeFEyJPJjdF_Ra-35" style="shape=partialRectangle;html=1;whiteSpace=wrap;connectable=0;strokeColor=inherit;overflow=hidden;fillColor=none;top=0;left=0;bottom=0;right=0;pointerEvents=1;fontSize=16;" vertex="1" parent="kU4winNeFEyJPJjdF_Ra-32">
          <mxGeometry x="270" width="140" height="66" as="geometry">
            <mxRectangle width="140" height="66" as="alternateBounds" />
          </mxGeometry>
        </mxCell>
        <mxCell id="kU4winNeFEyJPJjdF_Ra-36" style="shape=partialRectangle;html=1;whiteSpace=wrap;connectable=0;strokeColor=inherit;overflow=hidden;fillColor=none;top=0;left=0;bottom=0;right=0;pointerEvents=1;fontSize=16;" vertex="1" parent="kU4winNeFEyJPJjdF_Ra-32">
          <mxGeometry x="410" width="140" height="66" as="geometry">
            <mxRectangle width="140" height="66" as="alternateBounds" />
          </mxGeometry>
        </mxCell>
        <mxCell id="kU4winNeFEyJPJjdF_Ra-37" value="&lt;span style=&quot;color: rgb(29, 29, 32); font-family: system-ui, ui-sans-serif, -apple-system, BlinkMacSystemFont, sans-serif, Inter, NotoSansHans; font-variant-ligatures: normal; font-variant-caps: normal; font-weight: 400; letter-spacing: -0.28px; orphans: 2; text-align: start; text-indent: 0px; text-transform: none; widows: 2; word-spacing: 0px; -webkit-text-stroke-width: 0px; white-space: nowrap; background-color: rgb(255, 255, 255); text-decoration-thickness: initial; text-decoration-style: initial; text-decoration-color: initial; float: none; display: inline !important;&quot;&gt;рассчитывает&amp;nbsp;&lt;/span&gt;&lt;div&gt;&lt;span style=&quot;color: rgb(29, 29, 32); font-family: system-ui, ui-sans-serif, -apple-system, BlinkMacSystemFont, sans-serif, Inter, NotoSansHans; font-variant-ligatures: normal; font-variant-caps: normal; font-weight: 400; letter-spacing: -0.28px; orphans: 2; text-align: start; text-indent: 0px; text-transform: none; widows: 2; word-spacing: 0px; -webkit-text-stroke-width: 0px; white-space: nowrap; background-color: rgb(255, 255, 255); text-decoration-thickness: initial; text-decoration-style: initial; text-decoration-color: initial; float: none; display: inline !important;&quot;&gt;ставки в Excel,&lt;/span&gt;&lt;/div&gt;&lt;div&gt;&lt;span style=&quot;color: rgb(29, 29, 32); font-family: system-ui, ui-sans-serif, -apple-system, BlinkMacSystemFont, sans-serif, Inter, NotoSansHans; font-variant-ligatures: normal; font-variant-caps: normal; font-weight: 400; letter-spacing: -0.28px; orphans: 2; text-align: start; text-indent: 0px; text-transform: none; widows: 2; word-spacing: 0px; -webkit-text-stroke-width: 0px; white-space: nowrap; background-color: rgb(255, 255, 255); text-decoration-thickness: initial; text-decoration-style: initial; text-decoration-color: initial; float: none; display: inline !important;&quot;&gt;анализирует риск,&amp;nbsp;&lt;/span&gt;&lt;/div&gt;&lt;div&gt;&lt;span style=&quot;color: rgb(29, 29, 32); font-family: system-ui, ui-sans-serif, -apple-system, BlinkMacSystemFont, sans-serif, Inter, NotoSansHans; font-variant-ligatures: normal; font-variant-caps: normal; font-weight: 400; letter-spacing: -0.28px; orphans: 2; text-align: start; text-indent: 0px; text-transform: none; widows: 2; word-spacing: 0px; -webkit-text-stroke-width: 0px; white-space: nowrap; background-color: rgb(255, 255, 255); text-decoration-thickness: initial; text-decoration-style: initial; text-decoration-color: initial; float: none; display: inline !important;&quot;&gt;определяет специальные&lt;/span&gt;&lt;/div&gt;&lt;div&gt;&lt;span style=&quot;color: rgb(29, 29, 32); font-family: system-ui, ui-sans-serif, -apple-system, BlinkMacSystemFont, sans-serif, Inter, NotoSansHans; font-variant-ligatures: normal; font-variant-caps: normal; font-weight: 400; letter-spacing: -0.28px; orphans: 2; text-align: start; text-indent: 0px; text-transform: none; widows: 2; word-spacing: 0px; -webkit-text-stroke-width: 0px; white-space: nowrap; background-color: rgb(255, 255, 255); text-decoration-thickness: initial; text-decoration-style: initial; text-decoration-color: initial; float: none; display: inline !important;&quot;&gt;ставки&lt;/span&gt;&lt;br&gt;&lt;/div&gt;" style="shape=partialRectangle;html=1;whiteSpace=wrap;connectable=0;overflow=hidden;top=0;left=0;bottom=0;right=0;pointerEvents=1;fontSize=11;fontStyle=0" vertex="1" parent="kU4winNeFEyJPJjdF_Ra-32">
          <mxGeometry x="550" width="160" height="66" as="geometry">
            <mxRectangle width="160" height="66" as="alternateBounds" />
          </mxGeometry>
        </mxCell>
        <mxCell id="kU4winNeFEyJPJjdF_Ra-38" style="shape=partialRectangle;html=1;whiteSpace=wrap;connectable=0;strokeColor=inherit;overflow=hidden;fillColor=none;top=0;left=0;bottom=0;right=0;pointerEvents=1;fontSize=16;" vertex="1" parent="kU4winNeFEyJPJjdF_Ra-32">
          <mxGeometry x="710" width="150" height="66" as="geometry">
            <mxRectangle width="150" height="66" as="alternateBounds" />
          </mxGeometry>
        </mxCell>
        <mxCell id="kU4winNeFEyJPJjdF_Ra-39" value="&lt;br&gt;&lt;span style=&quot;color: rgb(29, 29, 32); font-family: system-ui, ui-sans-serif, -apple-system, BlinkMacSystemFont, sans-serif, Inter, NotoSansHans; font-variant-ligatures: normal; font-variant-caps: normal; font-weight: 400; letter-spacing: -0.28px; orphans: 2; text-align: start; text-indent: 0px; text-transform: none; widows: 2; word-spacing: 0px; -webkit-text-stroke-width: 0px; white-space: nowrap; background-color: rgb(255, 255, 255); text-decoration-thickness: initial; text-decoration-style: initial; text-decoration-color: initial; float: none; display: inline !important;&quot;&gt;Отвечает за управление&lt;/span&gt;&lt;div&gt;&lt;span style=&quot;color: rgb(29, 29, 32); font-family: system-ui, ui-sans-serif, -apple-system, BlinkMacSystemFont, sans-serif, Inter, NotoSansHans; font-variant-ligatures: normal; font-variant-caps: normal; font-weight: 400; letter-spacing: -0.28px; orphans: 2; text-align: start; text-indent: 0px; text-transform: none; widows: 2; word-spacing: 0px; -webkit-text-stroke-width: 0px; white-space: nowrap; background-color: rgb(255, 255, 255); text-decoration-thickness: initial; text-decoration-style: initial; text-decoration-color: initial; float: none; display: inline !important;&quot;&gt;&amp;nbsp;договорами по депозитам&lt;/span&gt;&lt;br&gt;&lt;br&gt;&lt;/div&gt;" style="shape=partialRectangle;html=1;whiteSpace=wrap;connectable=0;overflow=hidden;top=0;left=0;bottom=0;right=0;pointerEvents=1;fontSize=11;fontStyle=0" vertex="1" parent="kU4winNeFEyJPJjdF_Ra-32">
          <mxGeometry x="860" width="180" height="66" as="geometry">
            <mxRectangle width="180" height="66" as="alternateBounds" />
          </mxGeometry>
        </mxCell>
        <mxCell id="kU4winNeFEyJPJjdF_Ra-40" style="shape=partialRectangle;html=1;whiteSpace=wrap;connectable=0;overflow=hidden;top=0;left=0;bottom=0;right=0;pointerEvents=1;fontSize=11;fontStyle=0" vertex="1" parent="kU4winNeFEyJPJjdF_Ra-32">
          <mxGeometry x="1040" width="180" height="66" as="geometry">
            <mxRectangle width="180" height="66" as="alternateBounds" />
          </mxGeometry>
        </mxCell>
        <mxCell id="kU4winNeFEyJPJjdF_Ra-41" style="shape=partialRectangle;html=1;whiteSpace=wrap;connectable=0;overflow=hidden;top=0;left=0;bottom=0;right=0;pointerEvents=1;fontSize=11;fontStyle=0" vertex="1" parent="kU4winNeFEyJPJjdF_Ra-32">
          <mxGeometry x="1220" width="180" height="66" as="geometry">
            <mxRectangle width="180" height="66" as="alternateBounds" />
          </mxGeometry>
        </mxCell>
        <mxCell id="kU4winNeFEyJPJjdF_Ra-42" style="shape=tableRow;horizontal=0;startSize=0;swimlaneHead=0;swimlaneBody=0;strokeColor=inherit;top=0;left=0;bottom=0;right=0;collapsible=0;dropTarget=0;fillColor=none;points=[[0,0.5],[1,0.5]];portConstraint=eastwest;fontSize=16;" vertex="1" parent="kU4winNeFEyJPJjdF_Ra-1">
          <mxGeometry y="220" width="1400" height="59" as="geometry" />
        </mxCell>
        <mxCell id="kU4winNeFEyJPJjdF_Ra-43" value="Управление&amp;nbsp;&lt;br&gt;обслуживанием&amp;nbsp;&lt;br&gt;кредитных&amp;nbsp;&lt;br&gt;продуктов" style="shape=partialRectangle;whiteSpace=wrap;connectable=0;strokeColor=inherit;overflow=hidden;fillColor=none;top=0;left=0;bottom=0;right=0;pointerEvents=1;fontSize=12;fontStyle=1;html=1;" vertex="1" parent="kU4winNeFEyJPJjdF_Ra-42">
          <mxGeometry width="130" height="59" as="geometry">
            <mxRectangle width="130" height="59" as="alternateBounds" />
          </mxGeometry>
        </mxCell>
        <mxCell id="kU4winNeFEyJPJjdF_Ra-44" style="shape=partialRectangle;html=1;whiteSpace=wrap;connectable=0;strokeColor=inherit;overflow=hidden;fillColor=none;top=0;left=0;bottom=0;right=0;pointerEvents=1;fontSize=16;" vertex="1" parent="kU4winNeFEyJPJjdF_Ra-42">
          <mxGeometry x="130" width="140" height="59" as="geometry">
            <mxRectangle width="140" height="59" as="alternateBounds" />
          </mxGeometry>
        </mxCell>
        <mxCell id="kU4winNeFEyJPJjdF_Ra-45" style="shape=partialRectangle;html=1;whiteSpace=wrap;connectable=0;strokeColor=inherit;overflow=hidden;fillColor=none;top=0;left=0;bottom=0;right=0;pointerEvents=1;fontSize=16;" vertex="1" parent="kU4winNeFEyJPJjdF_Ra-42">
          <mxGeometry x="270" width="140" height="59" as="geometry">
            <mxRectangle width="140" height="59" as="alternateBounds" />
          </mxGeometry>
        </mxCell>
        <mxCell id="kU4winNeFEyJPJjdF_Ra-46" style="shape=partialRectangle;html=1;whiteSpace=wrap;connectable=0;strokeColor=inherit;overflow=hidden;fillColor=none;top=0;left=0;bottom=0;right=0;pointerEvents=1;fontSize=16;" vertex="1" parent="kU4winNeFEyJPJjdF_Ra-42">
          <mxGeometry x="410" width="140" height="59" as="geometry">
            <mxRectangle width="140" height="59" as="alternateBounds" />
          </mxGeometry>
        </mxCell>
        <mxCell id="kU4winNeFEyJPJjdF_Ra-47" value="&lt;span style=&quot;color: rgba(0, 0, 0, 0.85); font-family: &amp;quot;YS Text&amp;quot;, sans-serif; text-align: left; white-space-collapse: preserve-breaks; background-color: rgb(255, 255, 255);&quot;&gt;анализирует текущий&lt;/span&gt;&lt;div&gt;&lt;span style=&quot;color: rgba(0, 0, 0, 0.85); font-family: &amp;quot;YS Text&amp;quot;, sans-serif; text-align: left; white-space-collapse: preserve-breaks; background-color: rgb(255, 255, 255);&quot;&gt;&amp;nbsp;уровень кредитного&lt;/span&gt;&lt;/div&gt;&lt;div&gt;&lt;span style=&quot;color: rgba(0, 0, 0, 0.85); font-family: &amp;quot;YS Text&amp;quot;, sans-serif; text-align: left; white-space-collapse: preserve-breaks; background-color: rgb(255, 255, 255);&quot;&gt;&amp;nbsp;риска, передает в бэк-офис&lt;/span&gt;&lt;/div&gt;" style="shape=partialRectangle;html=1;whiteSpace=wrap;connectable=0;strokeColor=inherit;overflow=hidden;fillColor=none;top=0;left=0;bottom=0;right=0;pointerEvents=1;fontSize=11;" vertex="1" parent="kU4winNeFEyJPJjdF_Ra-42">
          <mxGeometry x="550" width="160" height="59" as="geometry">
            <mxRectangle width="160" height="59" as="alternateBounds" />
          </mxGeometry>
        </mxCell>
        <mxCell id="kU4winNeFEyJPJjdF_Ra-48" value="&lt;br&gt;&lt;span style=&quot;color: rgb(29, 29, 32); font-family: system-ui, ui-sans-serif, -apple-system, BlinkMacSystemFont, sans-serif, Inter, NotoSansHans; font-variant-ligatures: normal; font-variant-caps: normal; font-weight: 400; letter-spacing: -0.28px; orphans: 2; text-align: start; text-indent: 0px; text-transform: none; widows: 2; word-spacing: 0px; -webkit-text-stroke-width: 0px; white-space: nowrap; background-color: rgb(255, 255, 255); text-decoration-thickness: initial; text-decoration-style: initial; text-decoration-color: initial; float: none; display: inline !important;&quot;&gt;Специализируется на&lt;/span&gt;&lt;div&gt;&lt;span style=&quot;color: rgb(29, 29, 32); font-family: system-ui, ui-sans-serif, -apple-system, BlinkMacSystemFont, sans-serif, Inter, NotoSansHans; font-variant-ligatures: normal; font-variant-caps: normal; font-weight: 400; letter-spacing: -0.28px; orphans: 2; text-align: start; text-indent: 0px; text-transform: none; widows: 2; word-spacing: 0px; -webkit-text-stroke-width: 0px; white-space: nowrap; background-color: rgb(255, 255, 255); text-decoration-thickness: initial; text-decoration-style: initial; text-decoration-color: initial; float: none; display: inline !important;&quot;&gt;&amp;nbsp;кредитах:&lt;/span&gt;&lt;div&gt;&lt;span style=&quot;color: rgb(29, 29, 32); font-family: system-ui, ui-sans-serif, -apple-system, BlinkMacSystemFont, sans-serif, Inter, NotoSansHans; font-variant-ligatures: normal; font-variant-caps: normal; font-weight: 400; letter-spacing: -0.28px; orphans: 2; text-align: start; text-indent: 0px; text-transform: none; widows: 2; word-spacing: 0px; -webkit-text-stroke-width: 0px; white-space: nowrap; background-color: rgb(255, 255, 255); text-decoration-thickness: initial; text-decoration-style: initial; text-decoration-color: initial; float: none; display: inline !important;&quot;&gt;&amp;nbsp;анализирует кредитный&amp;nbsp;&lt;/span&gt;&lt;/div&gt;&lt;div&gt;&lt;span style=&quot;color: rgb(29, 29, 32); font-family: system-ui, ui-sans-serif, -apple-system, BlinkMacSystemFont, sans-serif, Inter, NotoSansHans; font-variant-ligatures: normal; font-variant-caps: normal; font-weight: 400; letter-spacing: -0.28px; orphans: 2; text-align: start; text-indent: 0px; text-transform: none; widows: 2; word-spacing: 0px; -webkit-text-stroke-width: 0px; white-space: nowrap; background-color: rgb(255, 255, 255); text-decoration-thickness: initial; text-decoration-style: initial; text-decoration-color: initial; float: none; display: inline !important;&quot;&gt;риск клиента в АБС&lt;/span&gt;&lt;br&gt;&lt;br&gt;&lt;/div&gt;&lt;/div&gt;" style="shape=partialRectangle;html=1;whiteSpace=wrap;connectable=0;overflow=hidden;top=0;left=0;bottom=0;right=0;pointerEvents=1;fontSize=11;fontStyle=0" vertex="1" parent="kU4winNeFEyJPJjdF_Ra-42">
          <mxGeometry x="710" width="150" height="59" as="geometry">
            <mxRectangle width="150" height="59" as="alternateBounds" />
          </mxGeometry>
        </mxCell>
        <mxCell id="kU4winNeFEyJPJjdF_Ra-49" value="&lt;span style=&quot;color: rgb(29, 29, 32); font-family: system-ui, ui-sans-serif, -apple-system, BlinkMacSystemFont, sans-serif, Inter, NotoSansHans; letter-spacing: -0.28px; text-align: start; text-wrap-mode: nowrap; background-color: rgb(255, 255, 255);&quot;&gt;Отвечает за управление&amp;nbsp;&lt;/span&gt;&lt;div&gt;&lt;span style=&quot;color: rgb(29, 29, 32); font-family: system-ui, ui-sans-serif, -apple-system, BlinkMacSystemFont, sans-serif, Inter, NotoSansHans; letter-spacing: -0.28px; text-align: start; text-wrap-mode: nowrap; background-color: rgb(255, 255, 255);&quot;&gt;договорами по кредитам&lt;/span&gt;&lt;/div&gt;" style="shape=partialRectangle;html=1;whiteSpace=wrap;connectable=0;overflow=hidden;top=0;left=0;bottom=0;right=0;pointerEvents=1;fontSize=11;fontStyle=0" vertex="1" parent="kU4winNeFEyJPJjdF_Ra-42">
          <mxGeometry x="860" width="180" height="59" as="geometry">
            <mxRectangle width="180" height="59" as="alternateBounds" />
          </mxGeometry>
        </mxCell>
        <mxCell id="kU4winNeFEyJPJjdF_Ra-50" style="shape=partialRectangle;html=1;whiteSpace=wrap;connectable=0;overflow=hidden;top=0;left=0;bottom=0;right=0;pointerEvents=1;fontSize=11;fontStyle=0" vertex="1" parent="kU4winNeFEyJPJjdF_Ra-42">
          <mxGeometry x="1040" width="180" height="59" as="geometry">
            <mxRectangle width="180" height="59" as="alternateBounds" />
          </mxGeometry>
        </mxCell>
        <mxCell id="kU4winNeFEyJPJjdF_Ra-51" style="shape=partialRectangle;html=1;whiteSpace=wrap;connectable=0;overflow=hidden;top=0;left=0;bottom=0;right=0;pointerEvents=1;fontSize=11;fontStyle=0" vertex="1" parent="kU4winNeFEyJPJjdF_Ra-42">
          <mxGeometry x="1220" width="180" height="59" as="geometry">
            <mxRectangle width="180" height="59" as="alternateBounds" />
          </mxGeometry>
        </mxCell>
        <mxCell id="kU4winNeFEyJPJjdF_Ra-52" style="shape=tableRow;horizontal=0;startSize=0;swimlaneHead=0;swimlaneBody=0;strokeColor=inherit;top=0;left=0;bottom=0;right=0;collapsible=0;dropTarget=0;fillColor=none;points=[[0,0.5],[1,0.5]];portConstraint=eastwest;fontSize=16;" vertex="1" parent="kU4winNeFEyJPJjdF_Ra-1">
          <mxGeometry y="279" width="1400" height="58" as="geometry" />
        </mxCell>
        <mxCell id="kU4winNeFEyJPJjdF_Ra-53" value="Кол-центр&amp;nbsp;&lt;br&gt;банка&amp;nbsp;&lt;br&gt;«Стандарт»" style="shape=partialRectangle;whiteSpace=wrap;connectable=0;strokeColor=inherit;overflow=hidden;fillColor=none;top=0;left=0;bottom=0;right=0;pointerEvents=1;fontSize=12;fontStyle=1;html=1;" vertex="1" parent="kU4winNeFEyJPJjdF_Ra-52">
          <mxGeometry width="130" height="58" as="geometry">
            <mxRectangle width="130" height="58" as="alternateBounds" />
          </mxGeometry>
        </mxCell>
        <mxCell id="kU4winNeFEyJPJjdF_Ra-54" style="shape=partialRectangle;html=1;whiteSpace=wrap;connectable=0;strokeColor=inherit;overflow=hidden;fillColor=none;top=0;left=0;bottom=0;right=0;pointerEvents=1;fontSize=16;" vertex="1" parent="kU4winNeFEyJPJjdF_Ra-52">
          <mxGeometry x="130" width="140" height="58" as="geometry">
            <mxRectangle width="140" height="58" as="alternateBounds" />
          </mxGeometry>
        </mxCell>
        <mxCell id="kU4winNeFEyJPJjdF_Ra-55" style="shape=partialRectangle;html=1;whiteSpace=wrap;connectable=0;strokeColor=inherit;overflow=hidden;fillColor=none;top=0;left=0;bottom=0;right=0;pointerEvents=1;fontSize=16;" vertex="1" parent="kU4winNeFEyJPJjdF_Ra-52">
          <mxGeometry x="270" width="140" height="58" as="geometry">
            <mxRectangle width="140" height="58" as="alternateBounds" />
          </mxGeometry>
        </mxCell>
        <mxCell id="kU4winNeFEyJPJjdF_Ra-56" style="shape=partialRectangle;html=1;whiteSpace=wrap;connectable=0;strokeColor=inherit;overflow=hidden;fillColor=none;top=0;left=0;bottom=0;right=0;pointerEvents=1;fontSize=16;" vertex="1" parent="kU4winNeFEyJPJjdF_Ra-52">
          <mxGeometry x="410" width="140" height="58" as="geometry">
            <mxRectangle width="140" height="58" as="alternateBounds" />
          </mxGeometry>
        </mxCell>
        <mxCell id="kU4winNeFEyJPJjdF_Ra-57" value="Передает заявки из системы кол-центра в АБС для предварительной обработки" style="shape=partialRectangle;html=1;whiteSpace=wrap;connectable=0;strokeColor=inherit;overflow=hidden;fillColor=none;top=0;left=0;bottom=0;right=0;pointerEvents=1;fontSize=11;fontStyle=0" vertex="1" parent="kU4winNeFEyJPJjdF_Ra-52">
          <mxGeometry x="550" width="160" height="58" as="geometry">
            <mxRectangle width="160" height="58" as="alternateBounds" />
          </mxGeometry>
        </mxCell>
        <mxCell id="kU4winNeFEyJPJjdF_Ra-58" style="shape=partialRectangle;html=1;whiteSpace=wrap;connectable=0;strokeColor=inherit;overflow=hidden;fillColor=none;top=0;left=0;bottom=0;right=0;pointerEvents=1;fontSize=16;" vertex="1" parent="kU4winNeFEyJPJjdF_Ra-52">
          <mxGeometry x="710" width="150" height="58" as="geometry">
            <mxRectangle width="150" height="58" as="alternateBounds" />
          </mxGeometry>
        </mxCell>
        <mxCell id="kU4winNeFEyJPJjdF_Ra-59" style="shape=partialRectangle;html=1;whiteSpace=wrap;connectable=0;strokeColor=inherit;overflow=hidden;fillColor=none;top=0;left=0;bottom=0;right=0;pointerEvents=1;fontSize=16;" vertex="1" parent="kU4winNeFEyJPJjdF_Ra-52">
          <mxGeometry x="860" width="180" height="58" as="geometry">
            <mxRectangle width="180" height="58" as="alternateBounds" />
          </mxGeometry>
        </mxCell>
        <mxCell id="kU4winNeFEyJPJjdF_Ra-60" value="&lt;span style=&quot;font-size: 11px; text-wrap-mode: nowrap; color: rgb(29, 29, 32); font-family: system-ui, ui-sans-serif, -apple-system, BlinkMacSystemFont, sans-serif, Inter, NotoSansHans; letter-spacing: -0.28px; text-align: start; background-color: rgb(255, 255, 255); float: none; display: inline !important;&quot;&gt;Принимает звонки,&amp;nbsp;&lt;/span&gt;&lt;div style=&quot;font-size: 11px;&quot;&gt;&lt;span style=&quot;color: rgb(29, 29, 32); font-family: system-ui, ui-sans-serif, -apple-system, BlinkMacSystemFont, sans-serif, Inter, NotoSansHans; letter-spacing: -0.28px; text-align: start; text-wrap-mode: nowrap; background-color: rgb(255, 255, 255); float: none; display: inline !important;&quot;&gt;заводит обращения&amp;nbsp;&lt;/span&gt;&lt;/div&gt;&lt;div style=&quot;font-size: 11px;&quot;&gt;&lt;span style=&quot;color: rgb(29, 29, 32); font-family: system-ui, ui-sans-serif, -apple-system, BlinkMacSystemFont, sans-serif, Inter, NotoSansHans; letter-spacing: -0.28px; text-align: start; text-wrap-mode: nowrap; background-color: rgb(255, 255, 255); float: none; display: inline !important;&quot;&gt;в системе кол-центра&lt;/span&gt;&lt;/div&gt;" style="shape=partialRectangle;html=1;whiteSpace=wrap;connectable=0;strokeColor=inherit;overflow=hidden;fillColor=none;top=0;left=0;bottom=0;right=0;pointerEvents=1;fontSize=16;" vertex="1" parent="kU4winNeFEyJPJjdF_Ra-52">
          <mxGeometry x="1040" width="180" height="58" as="geometry">
            <mxRectangle width="180" height="58" as="alternateBounds" />
          </mxGeometry>
        </mxCell>
        <mxCell id="kU4winNeFEyJPJjdF_Ra-61" value="&lt;span style=&quot;font-size: 11px; text-wrap-mode: nowrap; color: rgb(29, 29, 32); font-family: system-ui, ui-sans-serif, -apple-system, BlinkMacSystemFont, sans-serif, Inter, NotoSansHans; letter-spacing: -0.28px; text-align: start; background-color: rgb(255, 255, 255); float: none; display: inline !important;&quot;&gt;Может отправлять СМС&lt;/span&gt;&lt;div style=&quot;font-size: 11px;&quot;&gt;&lt;span style=&quot;color: rgb(29, 29, 32); font-family: system-ui, ui-sans-serif, -apple-system, BlinkMacSystemFont, sans-serif, Inter, NotoSansHans; letter-spacing: -0.28px; text-align: start; text-wrap-mode: nowrap; background-color: rgb(255, 255, 255); float: none; display: inline !important;&quot;&gt;&amp;nbsp;через СМС-шлюз&amp;nbsp;&lt;/span&gt;&lt;/div&gt;&lt;div style=&quot;font-size: 11px;&quot;&gt;&lt;span style=&quot;color: rgb(29, 29, 32); font-family: system-ui, ui-sans-serif, -apple-system, BlinkMacSystemFont, sans-serif, Inter, NotoSansHans; letter-spacing: -0.28px; text-align: start; text-wrap-mode: nowrap; background-color: rgb(255, 255, 255); float: none; display: inline !important;&quot;&gt;телеком-оператора&lt;/span&gt;&lt;/div&gt;" style="shape=partialRectangle;html=1;whiteSpace=wrap;connectable=0;strokeColor=inherit;overflow=hidden;fillColor=none;top=0;left=0;bottom=0;right=0;pointerEvents=1;fontSize=16;" vertex="1" parent="kU4winNeFEyJPJjdF_Ra-52">
          <mxGeometry x="1220" width="180" height="58" as="geometry">
            <mxRectangle width="180" height="58" as="alternateBounds" />
          </mxGeometry>
        </mxCell>
        <mxCell id="kU4winNeFEyJPJjdF_Ra-62" style="shape=tableRow;horizontal=0;startSize=0;swimlaneHead=0;swimlaneBody=0;strokeColor=inherit;top=0;left=0;bottom=0;right=0;collapsible=0;dropTarget=0;fillColor=none;points=[[0,0.5],[1,0.5]];portConstraint=eastwest;fontSize=16;" vertex="1" parent="kU4winNeFEyJPJjdF_Ra-1">
          <mxGeometry y="337" width="1400" height="51" as="geometry" />
        </mxCell>
        <mxCell id="kU4winNeFEyJPJjdF_Ra-63" value="Партнёрский&lt;br&gt;&amp;nbsp;кол-центр" style="shape=partialRectangle;whiteSpace=wrap;connectable=0;strokeColor=inherit;overflow=hidden;fillColor=none;top=0;left=0;bottom=0;right=0;pointerEvents=1;fontSize=12;fontStyle=1;html=1;" vertex="1" parent="kU4winNeFEyJPJjdF_Ra-62">
          <mxGeometry width="130" height="51" as="geometry">
            <mxRectangle width="130" height="51" as="alternateBounds" />
          </mxGeometry>
        </mxCell>
        <mxCell id="kU4winNeFEyJPJjdF_Ra-64" style="shape=partialRectangle;html=1;whiteSpace=wrap;connectable=0;strokeColor=inherit;overflow=hidden;fillColor=none;top=0;left=0;bottom=0;right=0;pointerEvents=1;fontSize=16;" vertex="1" parent="kU4winNeFEyJPJjdF_Ra-62">
          <mxGeometry x="130" width="140" height="51" as="geometry">
            <mxRectangle width="140" height="51" as="alternateBounds" />
          </mxGeometry>
        </mxCell>
        <mxCell id="kU4winNeFEyJPJjdF_Ra-65" style="shape=partialRectangle;html=1;whiteSpace=wrap;connectable=0;strokeColor=inherit;overflow=hidden;fillColor=none;top=0;left=0;bottom=0;right=0;pointerEvents=1;fontSize=16;" vertex="1" parent="kU4winNeFEyJPJjdF_Ra-62">
          <mxGeometry x="270" width="140" height="51" as="geometry">
            <mxRectangle width="140" height="51" as="alternateBounds" />
          </mxGeometry>
        </mxCell>
        <mxCell id="kU4winNeFEyJPJjdF_Ra-66" style="shape=partialRectangle;html=1;whiteSpace=wrap;connectable=0;strokeColor=inherit;overflow=hidden;fillColor=none;top=0;left=0;bottom=0;right=0;pointerEvents=1;fontSize=16;" vertex="1" parent="kU4winNeFEyJPJjdF_Ra-62">
          <mxGeometry x="410" width="140" height="51" as="geometry">
            <mxRectangle width="140" height="51" as="alternateBounds" />
          </mxGeometry>
        </mxCell>
        <mxCell id="kU4winNeFEyJPJjdF_Ra-67" style="shape=partialRectangle;html=1;whiteSpace=wrap;connectable=0;strokeColor=inherit;overflow=hidden;fillColor=none;top=0;left=0;bottom=0;right=0;pointerEvents=1;fontSize=16;" vertex="1" parent="kU4winNeFEyJPJjdF_Ra-62">
          <mxGeometry x="550" width="160" height="51" as="geometry">
            <mxRectangle width="160" height="51" as="alternateBounds" />
          </mxGeometry>
        </mxCell>
        <mxCell id="kU4winNeFEyJPJjdF_Ra-68" style="shape=partialRectangle;html=1;whiteSpace=wrap;connectable=0;strokeColor=inherit;overflow=hidden;fillColor=none;top=0;left=0;bottom=0;right=0;pointerEvents=1;fontSize=16;" vertex="1" parent="kU4winNeFEyJPJjdF_Ra-62">
          <mxGeometry x="710" width="150" height="51" as="geometry">
            <mxRectangle width="150" height="51" as="alternateBounds" />
          </mxGeometry>
        </mxCell>
        <mxCell id="kU4winNeFEyJPJjdF_Ra-69" style="shape=partialRectangle;html=1;whiteSpace=wrap;connectable=0;strokeColor=inherit;overflow=hidden;fillColor=none;top=0;left=0;bottom=0;right=0;pointerEvents=1;fontSize=16;" vertex="1" parent="kU4winNeFEyJPJjdF_Ra-62">
          <mxGeometry x="860" width="180" height="51" as="geometry">
            <mxRectangle width="180" height="51" as="alternateBounds" />
          </mxGeometry>
        </mxCell>
        <mxCell id="kU4winNeFEyJPJjdF_Ra-70" value="&lt;span style=&quot;font-size: 11px;&quot;&gt;Работает по&amp;nbsp;&lt;/span&gt;&lt;div style=&quot;font-size: 11px;&quot;&gt;скриптам&lt;/div&gt;" style="shape=partialRectangle;html=1;whiteSpace=wrap;connectable=0;strokeColor=inherit;overflow=hidden;fillColor=none;top=0;left=0;bottom=0;right=0;pointerEvents=1;fontSize=16;" vertex="1" parent="kU4winNeFEyJPJjdF_Ra-62">
          <mxGeometry x="1040" width="180" height="51" as="geometry">
            <mxRectangle width="180" height="51" as="alternateBounds" />
          </mxGeometry>
        </mxCell>
        <mxCell id="kU4winNeFEyJPJjdF_Ra-71" value="&lt;br style=&quot;font-size: 11px;&quot;&gt;&lt;span style=&quot;font-size: 11px; text-wrap-mode: nowrap; color: rgb(29, 29, 32); font-family: system-ui, ui-sans-serif, -apple-system, BlinkMacSystemFont, sans-serif, Inter, NotoSansHans; letter-spacing: -0.28px; text-align: start; background-color: rgb(255, 255, 255); float: none; display: inline !important;&quot;&gt;Может отправлять СМС&lt;/span&gt;&lt;div style=&quot;font-size: 11px;&quot;&gt;&lt;span style=&quot;color: rgb(29, 29, 32); font-family: system-ui, ui-sans-serif, -apple-system, BlinkMacSystemFont, sans-serif, Inter, NotoSansHans; letter-spacing: -0.28px; text-align: start; text-wrap-mode: nowrap; background-color: rgb(255, 255, 255); float: none; display: inline !important;&quot;&gt;&amp;nbsp;через СМС-шлюз&amp;nbsp;&lt;/span&gt;&lt;/div&gt;&lt;div style=&quot;font-size: 11px;&quot;&gt;&lt;span style=&quot;color: rgb(29, 29, 32); font-family: system-ui, ui-sans-serif, -apple-system, BlinkMacSystemFont, sans-serif, Inter, NotoSansHans; letter-spacing: -0.28px; text-align: start; text-wrap-mode: nowrap; background-color: rgb(255, 255, 255); float: none; display: inline !important;&quot;&gt;телеком-оператора&lt;/span&gt;&lt;br&gt;&lt;/div&gt;" style="shape=partialRectangle;html=1;whiteSpace=wrap;connectable=0;strokeColor=inherit;overflow=hidden;fillColor=none;top=0;left=0;bottom=0;right=0;pointerEvents=1;fontSize=16;" vertex="1" parent="kU4winNeFEyJPJjdF_Ra-62">
          <mxGeometry x="1220" width="180" height="51" as="geometry">
            <mxRectangle width="180" height="51" as="alternateBounds" />
          </mxGeometry>
        </mxCell>
        <mxCell id="kU4winNeFEyJPJjdF_Ra-72" style="shape=tableRow;horizontal=0;startSize=0;swimlaneHead=0;swimlaneBody=0;strokeColor=inherit;top=0;left=0;bottom=0;right=0;collapsible=0;dropTarget=0;fillColor=none;points=[[0,0.5],[1,0.5]];portConstraint=eastwest;fontSize=16;" vertex="1" parent="kU4winNeFEyJPJjdF_Ra-1">
          <mxGeometry y="388" width="1400" height="82" as="geometry" />
        </mxCell>
        <mxCell id="kU4winNeFEyJPJjdF_Ra-73" value="Управление по работе с &lt;br&gt;клиентами" style="shape=partialRectangle;whiteSpace=wrap;connectable=0;strokeColor=inherit;overflow=hidden;fillColor=none;top=0;left=0;bottom=0;right=0;pointerEvents=1;fontSize=12;fontStyle=1;html=1;" vertex="1" parent="kU4winNeFEyJPJjdF_Ra-72">
          <mxGeometry width="130" height="82" as="geometry">
            <mxRectangle width="130" height="82" as="alternateBounds" />
          </mxGeometry>
        </mxCell>
        <mxCell id="kU4winNeFEyJPJjdF_Ra-74" style="shape=partialRectangle;html=1;whiteSpace=wrap;connectable=0;strokeColor=inherit;overflow=hidden;fillColor=none;top=0;left=0;bottom=0;right=0;pointerEvents=1;fontSize=16;" vertex="1" parent="kU4winNeFEyJPJjdF_Ra-72">
          <mxGeometry x="130" width="140" height="82" as="geometry">
            <mxRectangle width="140" height="82" as="alternateBounds" />
          </mxGeometry>
        </mxCell>
        <mxCell id="kU4winNeFEyJPJjdF_Ra-75" style="shape=partialRectangle;html=1;whiteSpace=wrap;connectable=0;strokeColor=inherit;overflow=hidden;fillColor=none;top=0;left=0;bottom=0;right=0;pointerEvents=1;fontSize=16;" vertex="1" parent="kU4winNeFEyJPJjdF_Ra-72">
          <mxGeometry x="270" width="140" height="82" as="geometry">
            <mxRectangle width="140" height="82" as="alternateBounds" />
          </mxGeometry>
        </mxCell>
        <mxCell id="kU4winNeFEyJPJjdF_Ra-76" style="shape=partialRectangle;html=1;whiteSpace=wrap;connectable=0;strokeColor=inherit;overflow=hidden;fillColor=none;top=0;left=0;bottom=0;right=0;pointerEvents=1;fontSize=16;" vertex="1" parent="kU4winNeFEyJPJjdF_Ra-72">
          <mxGeometry x="410" width="140" height="82" as="geometry">
            <mxRectangle width="140" height="82" as="alternateBounds" />
          </mxGeometry>
        </mxCell>
        <mxCell id="kU4winNeFEyJPJjdF_Ra-77" style="shape=partialRectangle;html=1;whiteSpace=wrap;connectable=0;strokeColor=inherit;overflow=hidden;fillColor=none;top=0;left=0;bottom=0;right=0;pointerEvents=1;fontSize=16;" vertex="1" parent="kU4winNeFEyJPJjdF_Ra-72">
          <mxGeometry x="550" width="160" height="82" as="geometry">
            <mxRectangle width="160" height="82" as="alternateBounds" />
          </mxGeometry>
        </mxCell>
        <mxCell id="kU4winNeFEyJPJjdF_Ra-78" style="shape=partialRectangle;html=1;whiteSpace=wrap;connectable=0;strokeColor=inherit;overflow=hidden;fillColor=none;top=0;left=0;bottom=0;right=0;pointerEvents=1;fontSize=16;" vertex="1" parent="kU4winNeFEyJPJjdF_Ra-72">
          <mxGeometry x="710" width="150" height="82" as="geometry">
            <mxRectangle width="150" height="82" as="alternateBounds" />
          </mxGeometry>
        </mxCell>
        <mxCell id="kU4winNeFEyJPJjdF_Ra-79" style="shape=partialRectangle;html=1;whiteSpace=wrap;connectable=0;strokeColor=inherit;overflow=hidden;fillColor=none;top=0;left=0;bottom=0;right=0;pointerEvents=1;fontSize=16;" vertex="1" parent="kU4winNeFEyJPJjdF_Ra-72">
          <mxGeometry x="860" width="180" height="82" as="geometry">
            <mxRectangle width="180" height="82" as="alternateBounds" />
          </mxGeometry>
        </mxCell>
        <mxCell id="kU4winNeFEyJPJjdF_Ra-80" style="shape=partialRectangle;html=1;whiteSpace=wrap;connectable=0;strokeColor=inherit;overflow=hidden;fillColor=none;top=0;left=0;bottom=0;right=0;pointerEvents=1;fontSize=16;" vertex="1" parent="kU4winNeFEyJPJjdF_Ra-72">
          <mxGeometry x="1040" width="180" height="82" as="geometry">
            <mxRectangle width="180" height="82" as="alternateBounds" />
          </mxGeometry>
        </mxCell>
        <mxCell id="kU4winNeFEyJPJjdF_Ra-81" style="shape=partialRectangle;html=1;whiteSpace=wrap;connectable=0;strokeColor=inherit;overflow=hidden;fillColor=none;top=0;left=0;bottom=0;right=0;pointerEvents=1;fontSize=16;" vertex="1" parent="kU4winNeFEyJPJjdF_Ra-72">
          <mxGeometry x="1220" width="180" height="82" as="geometry">
            <mxRectangle width="180" height="82" as="alternateBounds" />
          </mxGeometry>
        </mxCell>
        <mxCell id="kU4winNeFEyJPJjdF_Ra-82" style="shape=tableRow;horizontal=0;startSize=0;swimlaneHead=0;swimlaneBody=0;strokeColor=inherit;top=0;left=0;bottom=0;right=0;collapsible=0;dropTarget=0;fillColor=none;points=[[0,0.5],[1,0.5]];portConstraint=eastwest;fontSize=16;" vertex="1" parent="kU4winNeFEyJPJjdF_Ra-1">
          <mxGeometry y="470" width="1400" height="81" as="geometry" />
        </mxCell>
        <mxCell id="kU4winNeFEyJPJjdF_Ra-83" value="&lt;br&gt;Команда&lt;br&gt;&amp;nbsp;цифровой&lt;br&gt;&amp;nbsp;трансформации&lt;br&gt;&amp;nbsp;розничного&lt;br&gt;&amp;nbsp;бизнеса&lt;br&gt;&lt;br&gt;" style="shape=partialRectangle;whiteSpace=wrap;connectable=0;strokeColor=inherit;overflow=hidden;fillColor=none;top=0;left=0;bottom=0;right=0;pointerEvents=1;fontSize=12;fontStyle=1;html=1;" vertex="1" parent="kU4winNeFEyJPJjdF_Ra-82">
          <mxGeometry width="130" height="81" as="geometry">
            <mxRectangle width="130" height="81" as="alternateBounds" />
          </mxGeometry>
        </mxCell>
        <mxCell id="kU4winNeFEyJPJjdF_Ra-84" style="shape=partialRectangle;html=1;whiteSpace=wrap;connectable=0;strokeColor=inherit;overflow=hidden;fillColor=none;top=0;left=0;bottom=0;right=0;pointerEvents=1;fontSize=16;" vertex="1" parent="kU4winNeFEyJPJjdF_Ra-82">
          <mxGeometry x="130" width="140" height="81" as="geometry">
            <mxRectangle width="140" height="81" as="alternateBounds" />
          </mxGeometry>
        </mxCell>
        <mxCell id="kU4winNeFEyJPJjdF_Ra-85" style="shape=partialRectangle;html=1;whiteSpace=wrap;connectable=0;strokeColor=inherit;overflow=hidden;fillColor=none;top=0;left=0;bottom=0;right=0;pointerEvents=1;fontSize=16;" vertex="1" parent="kU4winNeFEyJPJjdF_Ra-82">
          <mxGeometry x="270" width="140" height="81" as="geometry">
            <mxRectangle width="140" height="81" as="alternateBounds" />
          </mxGeometry>
        </mxCell>
        <mxCell id="kU4winNeFEyJPJjdF_Ra-86" style="shape=partialRectangle;html=1;whiteSpace=wrap;connectable=0;strokeColor=inherit;overflow=hidden;fillColor=none;top=0;left=0;bottom=0;right=0;pointerEvents=1;fontSize=16;" vertex="1" parent="kU4winNeFEyJPJjdF_Ra-82">
          <mxGeometry x="410" width="140" height="81" as="geometry">
            <mxRectangle width="140" height="81" as="alternateBounds" />
          </mxGeometry>
        </mxCell>
        <mxCell id="kU4winNeFEyJPJjdF_Ra-87" style="shape=partialRectangle;html=1;whiteSpace=wrap;connectable=0;strokeColor=inherit;overflow=hidden;fillColor=none;top=0;left=0;bottom=0;right=0;pointerEvents=1;fontSize=16;" vertex="1" parent="kU4winNeFEyJPJjdF_Ra-82">
          <mxGeometry x="550" width="160" height="81" as="geometry">
            <mxRectangle width="160" height="81" as="alternateBounds" />
          </mxGeometry>
        </mxCell>
        <mxCell id="kU4winNeFEyJPJjdF_Ra-88" style="shape=partialRectangle;html=1;whiteSpace=wrap;connectable=0;strokeColor=inherit;overflow=hidden;fillColor=none;top=0;left=0;bottom=0;right=0;pointerEvents=1;fontSize=16;" vertex="1" parent="kU4winNeFEyJPJjdF_Ra-82">
          <mxGeometry x="710" width="150" height="81" as="geometry">
            <mxRectangle width="150" height="81" as="alternateBounds" />
          </mxGeometry>
        </mxCell>
        <mxCell id="kU4winNeFEyJPJjdF_Ra-89" style="shape=partialRectangle;html=1;whiteSpace=wrap;connectable=0;strokeColor=inherit;overflow=hidden;fillColor=none;top=0;left=0;bottom=0;right=0;pointerEvents=1;fontSize=16;" vertex="1" parent="kU4winNeFEyJPJjdF_Ra-82">
          <mxGeometry x="860" width="180" height="81" as="geometry">
            <mxRectangle width="180" height="81" as="alternateBounds" />
          </mxGeometry>
        </mxCell>
        <mxCell id="kU4winNeFEyJPJjdF_Ra-90" style="shape=partialRectangle;html=1;whiteSpace=wrap;connectable=0;strokeColor=inherit;overflow=hidden;fillColor=none;top=0;left=0;bottom=0;right=0;pointerEvents=1;fontSize=16;" vertex="1" parent="kU4winNeFEyJPJjdF_Ra-82">
          <mxGeometry x="1040" width="180" height="81" as="geometry">
            <mxRectangle width="180" height="81" as="alternateBounds" />
          </mxGeometry>
        </mxCell>
        <mxCell id="kU4winNeFEyJPJjdF_Ra-91" style="shape=partialRectangle;html=1;whiteSpace=wrap;connectable=0;strokeColor=inherit;overflow=hidden;fillColor=none;top=0;left=0;bottom=0;right=0;pointerEvents=1;fontSize=16;" vertex="1" parent="kU4winNeFEyJPJjdF_Ra-82">
          <mxGeometry x="1220" width="180" height="81" as="geometry">
            <mxRectangle width="180" height="81" as="alternateBounds" />
          </mxGeometry>
        </mxCell>
        <mxCell id="kU4winNeFEyJPJjdF_Ra-92" style="shape=tableRow;horizontal=0;startSize=0;swimlaneHead=0;swimlaneBody=0;strokeColor=inherit;top=0;left=0;bottom=0;right=0;collapsible=0;dropTarget=0;fillColor=none;points=[[0,0.5],[1,0.5]];portConstraint=eastwest;fontSize=16;" vertex="1" parent="kU4winNeFEyJPJjdF_Ra-1">
          <mxGeometry y="551" width="1400" height="81" as="geometry" />
        </mxCell>
        <mxCell id="kU4winNeFEyJPJjdF_Ra-93" value="Управление &lt;br&gt;рекламы и&amp;nbsp;&lt;br&gt;маркетинга" style="shape=partialRectangle;whiteSpace=wrap;connectable=0;strokeColor=inherit;overflow=hidden;fillColor=none;top=0;left=0;bottom=0;right=0;pointerEvents=1;fontSize=12;fontStyle=1;html=1;" vertex="1" parent="kU4winNeFEyJPJjdF_Ra-92">
          <mxGeometry width="130" height="81" as="geometry">
            <mxRectangle width="130" height="81" as="alternateBounds" />
          </mxGeometry>
        </mxCell>
        <mxCell id="kU4winNeFEyJPJjdF_Ra-94" style="shape=partialRectangle;html=1;whiteSpace=wrap;connectable=0;strokeColor=inherit;overflow=hidden;fillColor=none;top=0;left=0;bottom=0;right=0;pointerEvents=1;fontSize=16;" vertex="1" parent="kU4winNeFEyJPJjdF_Ra-92">
          <mxGeometry x="130" width="140" height="81" as="geometry">
            <mxRectangle width="140" height="81" as="alternateBounds" />
          </mxGeometry>
        </mxCell>
        <mxCell id="kU4winNeFEyJPJjdF_Ra-95" style="shape=partialRectangle;html=1;whiteSpace=wrap;connectable=0;strokeColor=inherit;overflow=hidden;fillColor=none;top=0;left=0;bottom=0;right=0;pointerEvents=1;fontSize=16;" vertex="1" parent="kU4winNeFEyJPJjdF_Ra-92">
          <mxGeometry x="270" width="140" height="81" as="geometry">
            <mxRectangle width="140" height="81" as="alternateBounds" />
          </mxGeometry>
        </mxCell>
        <mxCell id="kU4winNeFEyJPJjdF_Ra-96" style="shape=partialRectangle;html=1;whiteSpace=wrap;connectable=0;strokeColor=inherit;overflow=hidden;fillColor=none;top=0;left=0;bottom=0;right=0;pointerEvents=1;fontSize=16;" vertex="1" parent="kU4winNeFEyJPJjdF_Ra-92">
          <mxGeometry x="410" width="140" height="81" as="geometry">
            <mxRectangle width="140" height="81" as="alternateBounds" />
          </mxGeometry>
        </mxCell>
        <mxCell id="kU4winNeFEyJPJjdF_Ra-97" style="shape=partialRectangle;html=1;whiteSpace=wrap;connectable=0;strokeColor=inherit;overflow=hidden;fillColor=none;top=0;left=0;bottom=0;right=0;pointerEvents=1;fontSize=16;" vertex="1" parent="kU4winNeFEyJPJjdF_Ra-92">
          <mxGeometry x="550" width="160" height="81" as="geometry">
            <mxRectangle width="160" height="81" as="alternateBounds" />
          </mxGeometry>
        </mxCell>
        <mxCell id="kU4winNeFEyJPJjdF_Ra-98" style="shape=partialRectangle;html=1;whiteSpace=wrap;connectable=0;strokeColor=inherit;overflow=hidden;fillColor=none;top=0;left=0;bottom=0;right=0;pointerEvents=1;fontSize=16;" vertex="1" parent="kU4winNeFEyJPJjdF_Ra-92">
          <mxGeometry x="710" width="150" height="81" as="geometry">
            <mxRectangle width="150" height="81" as="alternateBounds" />
          </mxGeometry>
        </mxCell>
        <mxCell id="kU4winNeFEyJPJjdF_Ra-99" style="shape=partialRectangle;html=1;whiteSpace=wrap;connectable=0;strokeColor=inherit;overflow=hidden;fillColor=none;top=0;left=0;bottom=0;right=0;pointerEvents=1;fontSize=16;" vertex="1" parent="kU4winNeFEyJPJjdF_Ra-92">
          <mxGeometry x="860" width="180" height="81" as="geometry">
            <mxRectangle width="180" height="81" as="alternateBounds" />
          </mxGeometry>
        </mxCell>
        <mxCell id="kU4winNeFEyJPJjdF_Ra-100" style="shape=partialRectangle;html=1;whiteSpace=wrap;connectable=0;strokeColor=inherit;overflow=hidden;fillColor=none;top=0;left=0;bottom=0;right=0;pointerEvents=1;fontSize=16;" vertex="1" parent="kU4winNeFEyJPJjdF_Ra-92">
          <mxGeometry x="1040" width="180" height="81" as="geometry">
            <mxRectangle width="180" height="81" as="alternateBounds" />
          </mxGeometry>
        </mxCell>
        <mxCell id="kU4winNeFEyJPJjdF_Ra-101" style="shape=partialRectangle;html=1;whiteSpace=wrap;connectable=0;strokeColor=inherit;overflow=hidden;fillColor=none;top=0;left=0;bottom=0;right=0;pointerEvents=1;fontSize=16;" vertex="1" parent="kU4winNeFEyJPJjdF_Ra-92">
          <mxGeometry x="1220" width="180" height="81" as="geometry">
            <mxRectangle width="180" height="81" as="alternateBounds" />
          </mxGeometry>
        </mxCell>
        <mxCell id="kU4winNeFEyJPJjdF_Ra-102" value="" style="rounded=0;whiteSpace=wrap;html=1;fontSize=100;labelBackgroundColor=default;fillColor=#1ba1e2;strokeColor=#006EAF;opacity=30;fontColor=#ffffff;" vertex="1" parent="1">
          <mxGeometry x="1110" y="360" width="360" height="110" as="geometry" />
        </mxCell>
        <mxCell id="kU4winNeFEyJPJjdF_Ra-103" value="" style="rounded=0;whiteSpace=wrap;html=1;opacity=30;fillColor=#60a917;fontColor=#ffffff;strokeColor=#2D7600;" vertex="1" parent="1">
          <mxGeometry x="410" y="130" width="700" height="260" as="geometry" />
        </mxCell>
        <mxCell id="kU4winNeFEyJPJjdF_Ra-104" value="" style="rounded=0;whiteSpace=wrap;html=1;fillColor=#e3c800;fontColor=#000000;strokeColor=#B09500;" vertex="1" parent="1">
          <mxGeometry x="200" y="632" width="140" height="80" as="geometry" />
        </mxCell>
        <mxCell id="kU4winNeFEyJPJjdF_Ra-105" value="&lt;div&gt;&lt;br&gt;&lt;/div&gt;" style="rounded=0;whiteSpace=wrap;html=1;opacity=40;fillColor=#a0522d;fontColor=#ffffff;strokeColor=#6D1F00;" vertex="1" parent="1">
          <mxGeometry x="340" y="470" width="140" height="80" as="geometry" />
        </mxCell>
        <mxCell id="kU4winNeFEyJPJjdF_Ra-106" value="" style="rounded=0;whiteSpace=wrap;html=1;opacity=30;fillColor=#60a917;fontColor=#ffffff;strokeColor=#2D7600;" vertex="1" parent="1">
          <mxGeometry x="675" y="775" width="110" height="40" as="geometry" />
        </mxCell>
        <mxCell id="kU4winNeFEyJPJjdF_Ra-107" value="Легенда" style="text;html=1;align=center;verticalAlign=middle;whiteSpace=wrap;rounded=0;fontSize=21;fontStyle=1" vertex="1" parent="1">
          <mxGeometry x="90" y="730" width="60" height="30" as="geometry" />
        </mxCell>
        <mxCell id="kU4winNeFEyJPJjdF_Ra-108" value="" style="rounded=0;whiteSpace=wrap;html=1;fontSize=100;labelBackgroundColor=default;fillColor=#1ba1e2;strokeColor=#006EAF;opacity=30;fontColor=#ffffff;" vertex="1" parent="1">
          <mxGeometry x="920" y="775" width="110" height="40" as="geometry" />
        </mxCell>
        <mxCell id="kU4winNeFEyJPJjdF_Ra-109" value="&lt;div&gt;&lt;br&gt;&lt;/div&gt;" style="rounded=0;whiteSpace=wrap;html=1;opacity=40;fillColor=#a0522d;fontColor=#ffffff;strokeColor=#6D1F00;" vertex="1" parent="1">
          <mxGeometry x="355" y="780" width="110" height="35" as="geometry" />
        </mxCell>
        <mxCell id="kU4winNeFEyJPJjdF_Ra-110" value="АБС&amp;nbsp;" style="text;html=1;align=center;verticalAlign=middle;whiteSpace=wrap;rounded=0;fontStyle=1;fontSize=18;" vertex="1" parent="1">
          <mxGeometry x="805" y="780" width="60" height="30" as="geometry" />
        </mxCell>
        <mxCell id="kU4winNeFEyJPJjdF_Ra-111" value="&lt;b&gt;&lt;font style=&quot;font-size: 18px;&quot;&gt;CRM&lt;/font&gt;&lt;/b&gt;" style="text;html=1;align=center;verticalAlign=middle;whiteSpace=wrap;rounded=0;" vertex="1" parent="1">
          <mxGeometry x="1050" y="780" width="60" height="30" as="geometry" />
        </mxCell>
        <mxCell id="kU4winNeFEyJPJjdF_Ra-112" value="&lt;b&gt;&lt;font style=&quot;font-size: 18px;&quot;&gt;Интернет-банк&lt;/font&gt;&lt;/b&gt;" style="text;html=1;align=center;verticalAlign=middle;whiteSpace=wrap;rounded=0;" vertex="1" parent="1">
          <mxGeometry x="479" y="780" width="140" height="30" as="geometry" />
        </mxCell>
        <mxCell id="kU4winNeFEyJPJjdF_Ra-113" value="" style="rounded=0;whiteSpace=wrap;html=1;fillColor=#e3c800;fontColor=#000000;strokeColor=#B09500;" vertex="1" parent="1">
          <mxGeometry x="70" y="775" width="110" height="40" as="geometry" />
        </mxCell>
        <mxCell id="kU4winNeFEyJPJjdF_Ra-114" value="&lt;b&gt;&lt;font style=&quot;font-size: 18px;&quot;&gt;Сайт банка&lt;/font&gt;&lt;/b&gt;" style="text;html=1;align=center;verticalAlign=middle;whiteSpace=wrap;rounded=0;" vertex="1" parent="1">
          <mxGeometry x="182" y="780" width="120" height="30" as="geometry" />
        </mxCell>
      </root>
    </mxGraphModel>
  </diagram>
</mxfile>
